# xmcd
#
# Track frame offsets: 
#        150
#        16511
#        32509
#        48527
#        65398
#        80542
#        99417
#        115898
#        132265
#        148213
#        168941
#        189922
#        206801
#        225150
#
# Disc length: 3240 seconds
#
# Revision: 0
# Processed by: cddbd v1.5PL3 Copyright (c) Steve Scherf et al.
# Submitted via: ExactAudioCopy v0.95a5
#
DISCID=af0ca60e
DTITLE=Blue - Guilty
DYEAR=2003
DGENRE=Pop
TTITLE0=Stand Up
TTITLE1=Signed.Sealed.Delivered I'm Yours
TTITLE2=Taste It
TTITLE3=Guilty
TTITLE4=Rock The Night
TTITLE5=When Summer's Gone
TTITLE6=Alive
TTITLE7=I Wanna Know
TTITLE8=Back It Up
TTITLE9=Breathe Easy
TTITLE10=Walk Away
TTITLE11=Where You Want Me
TTITLE12=How's A Man Supposed To Change
TTITLE13=No Goodbyes
EXTD=
EXTT0=
EXTT1=
EXTT2=
EXTT3=
EXTT4=
EXTT5=
EXTT6=
EXTT7=
EXTT8=
EXTT9=
EXTT10=
EXTT11=
EXTT12=
EXTT13=
PLAYORDER=
